<svg height="512pt" viewBox="0 0 512 512" width="512pt" xmlns="http://www.w3.org/2000/svg"><path d="m112.519531 379.96875c-12.597656 0-22.847656 10.261719-22.847656 22.859375 0 12.601563 10.25 22.863281 22.847656 22.863281h348.371094c-3.25-7.042968-5.03125-14.8125-5.03125-22.863281 0-8.046875 1.78125-15.816406 5.03125-22.859375zm0 0"/><path d="m512 293.828125h-168.398438c5.277344-4.957031 10.367188-10.367187 15.226563-16.1875 37.441406-44.761719 48.410156-103.121094 28.621094-152.320313-12.699219-31.582031-39.769531-51.179687-72.410157-52.410156-8.988281-.339844-18.417968.480469-29.667968 2.589844-2.632813.488281-5.160156 1.128906-7.621094 1.800781.53125-14.199219 5.46875-35.980469 27.339844-54.300781l-19.261719-23c-31.308594 26.210938-37.75 57.851562-38.066406 78.320312-3.589844-1.03125-7.300781-2.089843-11.242188-2.820312-11.25-2.109375-20.679687-2.929688-29.667969-2.589844-32.640624 1.230469-59.710937 20.828125-72.421874 52.410156-19.78125 49.199219-8.808594 107.558594 28.628906 152.320313 4.863281 5.820313 9.953125 11.230469 15.230468 16.1875h-69.289062c-60.101562 0-109 48.902344-109 109 0 60.101563 48.898438 109 109 109h403v-56.136719h-399.480469c-29.140625 0-52.847656-23.710937-52.847656-52.863281 0-29.148437 23.707031-52.859375 52.847656-52.859375h399.480469zm-198.28125-104.328125c4.8125-22.871094-16.769531-36.128906-16.988281-36.269531l15.441406-25.710938c1.636719.980469 40.058594 24.621094 30.90625 68.140625zm0 0"/></svg>