<svg id="Capa_1" enable-background="new 0 0 593.681 593.681" height="512" viewBox="0 0 593.681 593.681" width="512" xmlns="http://www.w3.org/2000/svg"><g><g><path d="m66.929 467.242h479.06v-10.134l-488.46.822c-8.745 7.903-13.531 17.989-13.858 29.268-.44 14.969 6.729 30.805 19.721 43.704h15.86c-.254-10.35.445-21.032 2.045-32.004h-23.67c-2.706 0-4.894-2.187-4.894-4.893s2.187-4.894 4.894-4.894h488.368v-12.082h-479.066c-2.706 0-4.894-2.187-4.894-4.893.001-2.706 2.188-4.894 4.894-4.894z"/><path d="m61.409 540.689c-1.253 0-2.457-.48-3.367-1.341-15.889-15.048-24.698-34.157-24.159-52.434.431-14.7 6.88-27.707 18.659-37.616.881-.739 1.992-1.15 3.142-1.15l495.189-.832c5.344-.01 10.267-2.187 13.858-6.141 3.592-3.954 5.295-9.058 4.796-14.377l-37.611-403.554c-1.224-13.251-12.2-23.244-25.505-23.244h-399.081c-23.068 0-42.065 17.323-44.188 40.293l-41.316 446.279c-1.277 30.085 16.418 60.352 40.425 69.111h19.525c-.886-4.913-1.541-9.909-1.967-14.989h-18.4zm253.328-437.95c.338-19.476 22.564-27.472 33.031-11.881l70.819 105.46v-96.994c0-9.161 7.428-16.589 16.589-16.589 8.72 0 15.953 6.753 16.55 15.454l9.66 141.144c1.747 25.539-26.459 39.089-41.884 20.122l-69.64-85.636v73.383c0 11.666-8.476 21.125-18.933 21.125-10.614 0-19.153-9.733-18.928-21.576zm-175.55 139.553 14.959-138.658c1.287-11.95 11.377-21.008 23.396-21.008h93.119c8.833 0 15.992 7.159 15.992 15.992 0 8.833-7.159 15.992-15.992 15.992h-79.569l-4.722 42.373h84.697c8.608 0 15.586 6.978 15.586 15.586s-6.978 15.586-15.586 15.586h-88.176l-4.517 40.513h88.431c10.961 0 19.843 8.887 19.843 19.843 0 10.961-8.887 19.843-19.843 19.843h-104.222c-13.996-.008-24.898-12.149-23.396-26.062z"/><path d="m356.664 520.083h-171.723c.132 3.641.191 7.257.108 10.82h360.946v-32.004h-362.997c.558 3.837 1.008 7.634 1.341 11.397h172.325c2.706 0 4.894 2.187 4.894 4.893s-2.188 4.894-4.894 4.894z"/><path d="m91.27 498.898c-5.378 35.165-.847 67.026 13.687 94.782l23.631-24.977c1.855-1.948 5.256-1.948 7.11 0l23.645 24.977c14.534-27.761 19.065-59.618 13.687-94.782z"/><path d="m564.423 540.689h-379.937c-.421 5.079-1.081 10.076-1.967 14.989h381.904c4.135 0 7.497-3.362 7.497-7.492s-3.362-7.497-7.497-7.497z"/></g></g></svg>